<?xml version="1.0" standalone="no"?>
<!DOCTYPE svg PUBLIC "-//W3C//DTD SVG 20010904//EN"
 "http://www.w3.org/TR/2001/REC-SVG-20010904/DTD/svg10.dtd">
<svg version="1.0" xmlns="http://www.w3.org/2000/svg"
 width="600.000000pt" height="259.000000pt" viewBox="0 0 600.000000 259.000000"
 preserveAspectRatio="xMidYMid meet">
<g transform="translate(0.000000,259.000000) scale(0.100000,-0.100000)"
fill="#fb2c36" stroke="none">
<path d="M4852 2528 c-25 -25 -6 -68 30 -68 26 0 45 44 28 65 -15 18 -41 20
-58 3z m46 -25 c-5 -26 -38 -29 -38 -4 0 15 6 21 21 21 14 0 19 -5 17 -17z"/>
<path d="M1812 2420 c-42 -20 -102 -87 -176 -198 -16 -24 -34 -46 -40 -50 -16
-10 -66 -79 -66 -90 0 -6 -7 -12 -15 -15 -8 -4 -26 -24 -40 -47 -14 -22 -33
-48 -41 -58 -9 -9 -61 -78 -117 -152 -56 -74 -110 -144 -120 -155 -10 -11 -27
-35 -38 -52 -12 -18 -25 -33 -30 -33 -6 0 -8 -4 -5 -9 4 -5 2 -11 -2 -13 -8
-2 -49 -55 -141 -178 -10 -14 -35 -45 -54 -70 -20 -25 -57 -74 -84 -110 -26
-36 -52 -69 -58 -75 -6 -5 -22 -27 -36 -47 -13 -21 -27 -38 -31 -38 -3 0 -18
-20 -32 -44 -14 -24 -32 -46 -41 -50 -8 -3 -15 -12 -15 -21 0 -8 -4 -15 -10
-15 -5 0 -10 -5 -10 -10 0 -6 -12 -22 -26 -35 -15 -14 -23 -25 -18 -25 5 0 2
-6 -6 -13 -9 -7 -29 -30 -45 -52 -17 -22 -32 -42 -35 -45 -3 -3 -17 -21 -30
-40 -13 -19 -40 -53 -59 -76 -20 -23 -56 -70 -81 -104 -42 -60 -62 -86 -135
-176 -16 -20 -34 -44 -39 -53 -5 -9 -17 -25 -28 -37 -24 -26 -11 -68 24 -77
13 -4 119 -7 236 -7 180 0 220 3 250 17 21 9 41 23 45 30 4 7 19 24 33 38 14
14 21 25 17 25 -4 0 -3 4 2 8 6 4 36 41 68 82 31 41 70 92 87 112 17 20 43 54
57 75 14 21 34 44 44 51 11 7 19 18 19 23 0 6 6 16 13 24 6 7 28 34 47 60 19
25 52 66 73 91 20 25 37 49 37 55 0 5 14 22 31 39 18 16 29 30 26 30 -8 0 29
45 56 69 9 8 17 19 17 23 0 7 6 16 51 68 8 10 24 31 35 46 43 59 91 123 119
158 17 21 41 52 55 69 14 18 46 59 70 92 25 33 55 71 67 84 13 13 23 27 23 31
0 6 14 24 51 68 6 7 13 12 15 9 2 -2 4 -326 4 -720 l1 -716 26 -20 c24 -19 39
-21 200 -21 138 0 182 3 208 16 36 17 65 50 218 253 15 20 38 48 52 64 14 15
25 31 25 35 0 5 16 25 35 46 19 21 35 41 35 45 0 3 14 20 30 38 17 18 30 35
30 38 0 8 79 111 114 148 14 15 25 30 25 33 -1 3 11 19 25 35 14 16 26 31 26
34 0 6 14 24 41 53 8 9 31 39 50 67 19 27 44 58 57 68 12 10 22 23 22 29 0 6
15 28 33 49 17 22 47 56 65 78 17 21 32 41 32 45 0 6 17 29 66 85 17 20 33 41
35 46 7 19 124 174 134 178 14 6 14 -985 0 -996 -6 -6 -6 -10 3 -14 17 -7 15
-42 -4 -50 -10 -4 -12 -8 -5 -13 8 -4 12 -69 14 -187 3 -243 -16 -225 234
-221 169 3 195 5 210 21 17 17 18 75 18 1110 0 1035 -1 1094 -18 1120 l-18 28
-192 -1 c-178 -2 -193 -3 -222 -23 -16 -11 -34 -27 -38 -34 -5 -7 -18 -22 -29
-33 -12 -11 -18 -20 -13 -20 4 0 -2 -8 -13 -19 -12 -10 -22 -23 -22 -30 0 -6
-4 -11 -8 -11 -4 0 -15 -12 -24 -27 -17 -29 -40 -57 -116 -147 -23 -28 -46
-56 -50 -61 -45 -64 -181 -244 -234 -310 -38 -47 -68 -87 -68 -90 0 -3 -13
-20 -29 -38 -16 -17 -42 -50 -56 -72 -15 -22 -36 -48 -46 -58 -11 -10 -31 -37
-46 -60 -14 -23 -34 -48 -45 -55 -10 -7 -18 -19 -18 -27 0 -7 -4 -15 -8 -17
-9 -3 -98 -115 -117 -146 -5 -9 -15 -21 -21 -27 -6 -5 -22 -26 -35 -45 -13
-19 -28 -40 -34 -46 -5 -6 -18 -22 -28 -35 -50 -70 -46 -80 -47 134 0 192 1
197 19 187 15 -7 23 -6 35 6 18 17 21 44 6 44 -5 0 -10 -9 -10 -21 0 -14 -5
-19 -17 -17 -22 4 -30 38 -9 38 8 0 18 5 22 11 5 9 -1 10 -19 5 l-26 -6 -3
502 c-3 542 -4 547 -55 543 -12 -1 -20 1 -19 4 2 3 -69 6 -158 6 -124 0 -169
-4 -194 -15z m382 -16 c14 -6 16 -84 17 -778 0 -600 3 -767 12 -753 23 34 303
400 597 780 14 18 89 115 167 217 373 486 388 505 423 522 29 15 63 18 206 18
119 0 174 -4 182 -12 9 -9 12 -269 12 -1110 0 -1079 0 -1097 -20 -1108 -24
-13 -348 -12 -372 1 -17 9 -18 57 -19 772 l0 762 -22 -29 c-48 -63 -209 -272
-221 -287 -7 -8 -109 -141 -226 -295 -118 -153 -239 -311 -269 -350 -31 -40
-103 -134 -161 -209 -221 -289 -263 -340 -288 -355 -40 -22 -373 -28 -390 -7
-10 12 -13 189 -12 771 0 416 -3 756 -7 756 -5 -1 -29 -31 -55 -68 -26 -37
-117 -157 -203 -267 -85 -110 -186 -240 -224 -290 -244 -317 -447 -581 -552
-718 -66 -86 -132 -165 -147 -175 -23 -15 -55 -17 -261 -17 -266 0 -268 0
-214 72 26 36 243 319 343 448 26 33 134 175 241 315 205 267 544 710 611 795
21 28 78 102 126 165 47 63 89 117 93 120 3 3 52 67 109 143 70 93 115 144
139 157 31 17 59 19 203 20 91 0 173 -3 182 -6z"/>
<path d="M1526 1457 c3 -10 9 -15 12 -12 3 3 0 11 -7 18 -10 9 -11 8 -5 -6z"/>
<path d="M4774 2433 c-484 -3 -491 -3 -510 -24 -18 -20 -19 -57 -22 -1110 -2
-732 1 -1095 8 -1108 21 -41 55 -46 242 -41 201 6 206 7 212 80 2 25 4 219 5
433 l1 387 388 0 c380 0 390 0 413 21 24 20 24 25 27 208 3 173 2 189 -16 211
-24 29 3 28 -452 29 l-365 1 0 225 0 225 245 1 c135 1 323 4 419 8 l173 6 35
40 c19 22 66 83 105 135 39 52 74 97 77 100 4 3 23 28 44 57 31 43 36 55 28
76 -5 13 -20 27 -33 30 -34 9 -470 13 -1024 10z m1030 -29 c24 -9 20 -24 -19
-74 -19 -25 -44 -56 -54 -70 -133 -174 -176 -226 -201 -242 -28 -17 -61 -18
-440 -18 l-410 0 0 -255 0 -255 413 -2 412 -3 0 -200 0 -200 -413 -2 -413 -2
1 -446 0 -445 -25 -10 c-39 -15 -358 -13 -373 2 -17 17 -17 2199 0 2216 9 9
191 12 759 12 411 0 754 -3 763 -6z"/>
<path d="M5980 2160 c-13 -8 -12 -10 3 -10 9 0 17 5 17 10 0 12 -1 12 -20 0z"/>
<path d="M5972 2120 c15 -24 33 -27 24 -4 -3 9 -6 18 -6 20 0 2 -7 4 -15 4
-13 0 -13 -3 -3 -20z"/>
<path d="M172 1902 c-28 -19 -28 -42 2 -64 22 -16 24 -16 45 6 23 25 21 45 -7
62 -13 9 -23 8 -40 -4z m41 -18 c9 -9 -4 -34 -18 -34 -14 0 -27 25 -18 34 4 3
12 6 18 6 6 0 14 -3 18 -6z"/>
<path d="M1477 1159 c-12 -17 -13 -25 -4 -40 14 -23 35 -21 51 4 8 12 8 22 0
34 -16 26 -31 26 -47 2z m43 -20 c0 -12 -7 -19 -20 -19 -19 0 -28 28 -14 43
11 11 34 -5 34 -24z"/>
<path d="M920 69 c-9 -16 -8 -25 6 -40 23 -26 42 -24 56 6 21 46 -39 79 -62
34z m50 -20 c0 -14 -5 -19 -17 -17 -26 5 -29 38 -4 38 15 0 21 -6 21 -21z"/>
<path d="M5347 42 c-19 -21 -22 -42 -7 -42 6 0 10 7 10 15 0 9 9 15 21 15 15
0 19 -5 15 -15 -3 -9 0 -15 9 -15 21 0 19 30 -2 46 -24 18 -27 17 -46 -4z"/>
</g>
</svg>
