<?xml version="1.0" encoding="utf-8"?>
<svg version="1.0" xmlns="http://www.w3.org/2000/svg" width="600.000000pt" height="600.000000pt" viewBox="0 0 600.000000 600.000000" preserveAspectRatio="xMidYMid meet">
  <g transform="translate(0.000000,600.000000) scale(0.100000,-0.100000)" fill="#000000" stroke="none">
    <path d="M5530 5770 c-11 -11 -23 -39 -26 -62 -6 -31 -20 -56 -62 -102 -137 -151 -209 -224 -232 -238 -14 -9 -74 -26 -135 -38 -458 -91 -780 -237 -1090 -492 -112 -92 -465 -452 -465 -474 0 -5 53 -58 118 -118 64 -60 182 -170 262 -245 80 -75 181 -169 225 -210 44 -41 114 -107 155 -146 41 -39 80 -75 87 -78 16 -10 253 235 371 382 197 246 370 594 447 901 26 103 59 295 70 401 l6 65 144 156 c119 128 150 157 179 162 59 11 81 40 77 99 -3 52 -91 77 -131 37z m90 -30 c10 -18 1 -72 -10 -65 -5 3 -11 1 -15 -5 -4 -6 -11 -8 -16 -5 -5 4 -9 2 -9 -2 0 -5 -9 -9 -21 -10 -19 -2 -20 2 -14 35 4 20 13 45 22 54 18 20 52 19 63 -2z m-356 -402 c-3 -4 -11 -5 -20 -1 -8 3 -14 2 -13 -3 1 -5 0 -11 -1 -14 -2 -3 -4 -23 -6 -45 -2 -22 -8 -61 -12 -87 -5 -26 -5 -53 -1 -59 4 -7 1 -26 -6 -43 -14 -34 -38 -150 -37 -178 0 -10 -4 -20 -9 -23 -5 -4 -7 -10 -4 -15 3 -5 1 -19 -5 -29 -6 -11 -12 -33 -14 -48 -5 -33 -77 -237 -100 -282 -9 -17 -16 -33 -16 -36 0 -3 -11 -28 -25 -55 -14 -27 -25 -52 -26 -55 0 -2 -15 -32 -34 -66 -19 -33 -32 -66 -28 -72 3 -5 2 -7 -4 -4 -12 8 -56 -50 -48 -63 4 -6 -1 -13 -9 -16 -9 -3 -16 -11 -16 -18 0 -6 -15 -28 -33 -48 -17 -20 -48 -59 -67 -85 -19 -26 -43 -54 -52 -62 -10 -9 -18 -19 -18 -24 0 -10 -4 -15 -161 -177 -84 -87 -121 -119 -137 -117 -15 1 -21 6 -17 15 3 9 0 12 -9 9 -11 -4 -13 -1 -9 11 3 9 3 14 -1 10 -8 -7 -88 63 -176 155 -31 31 -59 57 -62 57 -3 0 -37 30 -75 68 -38 37 -104 99 -145 137 -41 39 -96 89 -121 113 -26 24 -51 41 -56 38 -5 -3 -8 2 -7 12 0 9 -4 16 -11 15 -7 -2 -10 4 -6 13 3 8 2 14 -3 13 -15 -4 -44 13 -39 21 3 5 -4 11 -15 15 -11 4 -18 10 -15 15 5 8 -27 32 -37 27 -2 -1 8 9 22 22 14 13 18 20 10 16 -13 -7 -13 -6 0 6 8 8 20 21 28 29 10 11 12 11 6 1 -5 -9 -3 -12 5 -7 6 4 9 11 6 16 -3 5 7 18 21 29 15 12 24 21 20 21 -4 0 19 26 52 58 33 31 76 77 96 100 20 24 36 41 36 36 0 -4 17 10 38 32 20 21 36 42 34 47 -1 5 2 6 7 3 5 -4 14 2 20 11 6 10 11 14 11 8 0 -5 13 5 29 22 16 18 32 29 35 25 4 -3 17 4 29 16 48 46 67 62 76 62 6 0 16 8 23 18 7 9 24 23 38 30 65 34 89 50 84 54 -3 3 2 8 11 12 11 4 14 2 9 -7 -6 -9 -5 -9 8 0 8 7 17 10 21 7 3 -3 8 4 12 15 4 13 11 18 22 14 11 -4 14 -2 9 5 -6 11 5 17 27 13 4 0 7 4 7 10 0 5 4 8 9 4 5 -3 12 -1 16 5 4 6 11 8 16 5 5 -4 9 -1 9 5 0 6 5 8 10 5 6 -3 10 -3 10 2 0 14 50 33 51 20 0 -8 2 -8 6 1 8 19 60 43 79 35 11 -4 15 -3 10 5 -4 7 9 15 36 23 24 6 49 16 57 22 12 10 13 9 7 -1 -7 -12 -5 -12 15 -1 13 8 31 14 40 15 9 1 29 5 45 9 16 5 32 8 37 7 4 -1 7 1 7 6 0 4 10 8 23 9 52 5 103 16 114 25 6 5 32 10 56 11 25 1 44 4 42 7 -2 3 8 6 21 7 55 6 62 8 57 16 -3 5 0 8 8 5 8 -3 20 1 26 8 14 13 55 15 47 2z"/>
    <path d="M5046 5219 c3 -5 -2 -6 -10 -3 -8 3 -43 -2 -78 -12 -35 -9 -74 -18 -88 -20 -14 -2 -54 -11 -90 -19 -36 -9 -80 -18 -99 -20 -35 -4 -74 -26 -103 -56 -20 -21 -24 -34 -6 -23 8 5 8 3 2 -7 -5 -8 -9 -29 -10 -46 -1 -47 54 -84 126 -85 29 0 57 5 63 11 6 6 27 11 47 11 20 0 40 3 44 7 6 7 28 11 78 14 15 1 25 6 22 11 -3 4 0 8 7 8 7 0 10 3 6 6 -8 8 18 34 33 34 6 0 8 5 5 10 -3 6 1 10 9 10 8 0 18 5 22 12 5 7 3 8 -7 3 -12 -8 -12 -6 0 8 7 9 19 17 27 17 7 0 16 5 20 12 5 7 3 8 -7 3 -12 -8 -12 -6 0 8 7 9 20 17 28 17 8 0 12 4 9 9 -3 5 1 14 9 21 30 25 7 69 -35 68 -16 -1 -27 -5 -24 -9z m-31 -114 c-48 -52 -89 -95 -92 -95 -2 0 -59 -11 -125 -25 -66 -14 -131 -25 -144 -25 -52 0 -83 71 -51 114 10 14 75 33 243 71 126 29 235 53 242 54 8 0 -25 -42 -73 -94z m-90 -115 c-3 -5 -12 -10 -18 -10 -7 0 -6 4 3 10 19 12 23 12 15 0z"/>
    <path d="M4317 4623 c-4 -3 -40 -7 -80 -8 -48 -1 -87 -8 -117 -22 -47 -21 -174 -134 -175 -156 -1 -6 -7 -25 -14 -42 -7 -16 -15 -60 -18 -96 -5 -53 -2 -74 15 -112 12 -26 17 -45 12 -42 -6 4 -10 1 -10 -5 0 -6 7 -13 15 -16 8 -4 15 -12 15 -20 0 -8 5 -14 12 -14 6 0 8 -3 5 -6 -7 -8 42 -54 57 -54 5 0 6 -3 3 -7 -6 -5 44 -43 63 -48 3 -1 12 -5 20 -8 66 -30 182 -39 204 -17 7 7 6 10 -4 10 -7 0 -11 3 -8 6 4 3 16 1 27 -6 15 -8 21 -8 21 0 0 6 5 8 10 5 6 -3 10 -2 10 4 0 5 16 15 34 22 19 7 33 15 32 18 -2 3 2 12 10 19 8 7 14 10 14 7 0 -9 20 13 54 59 16 22 23 36 15 31 -10 -6 -10 -3 2 11 9 10 15 29 14 41 -1 12 2 20 6 17 12 -7 21 74 14 128 -8 58 -34 124 -62 159 -41 51 -70 78 -76 72 -4 -3 -7 -2 -7 4 0 5 -18 18 -40 28 -22 10 -40 22 -40 26 0 5 -7 5 -17 2 -11 -4 -14 -3 -9 5 8 13 3 16 -7 5z m24 -53 c48 -13 112 -61 149 -112 146 -201 -1 -481 -251 -480 -147 1 -271 112 -294 263 -17 111 44 236 144 296 86 52 150 60 252 33z m-361 -104 c0 -2 -8 -10 -17 -17 -16 -13 -17 -12 -4 4 13 16 21 21 21 13z"/>
    <path d="M4155 4471 c-142 -66 -157 -274 -26 -366 38 -27 51 -30 115 -30 62 0 78 4 114 27 59 40 95 106 95 177 0 64 -16 102 -65 148 -65 63 -156 80 -233 44z m159 -25 c44 -18 76 -51 76 -76 0 -25 -27 -26 -54 -1 -42 37 -115 46 -167 20 -21 -10 -43 5 -36 25 16 40 119 58 181 32z m-178 -85 c-2 -3 9 -6 24 -6 15 0 26 4 23 8 -4 7 29 2 66 -9 9 -3 11 1 7 11 -7 18 2 14 51 -22 27 -20 32 -21 26 -6 -4 12 1 10 16 -7 15 -17 24 -21 27 -12 3 6 10 10 15 6 5 -3 9 0 9 6 0 6 4 9 8 6 5 -3 9 -26 11 -52 1 -26 4 -51 7 -56 3 -4 2 -8 -3 -8 -12 0 -44 -60 -38 -71 4 -5 -2 -6 -11 -2 -13 5 -15 3 -9 -7 6 -10 3 -12 -13 -8 -13 4 -23 0 -26 -9 -4 -9 -13 -13 -22 -9 -8 3 -12 2 -9 -3 3 -5 1 -12 -5 -16 -5 -3 -10 -3 -10 2 0 4 -12 9 -27 10 -80 5 -92 7 -87 15 3 4 -2 8 -11 8 -8 0 -18 7 -21 15 -4 8 -9 13 -13 10 -4 -2 -16 13 -26 33 -22 43 -28 120 -12 141 9 12 9 13 -1 7 -9 -6 -10 -2 -1 18 8 16 17 22 27 19 11 -5 13 -3 7 8 -8 12 -6 12 8 0 9 -7 15 -16 13 -20z"/>
    <path d="M5369 5583 c-13 -16 -12 -17 4 -4 9 7 17 15 17 17 0 8 -8 3 -21 -13z"/>
    <path d="M5251 4894 c0 -11 3 -14 6 -6 3 7 2 16 -1 19 -3 4 -6 -2 -5 -13z"/>
    <path d="M3435 4278 c-40 -46 -138 -154 -546 -603 -195 -215 -435 -480 -534 -589 -99 -109 -206 -226 -237 -261 l-57 -62 80 -73 c76 -69 81 -71 99 -55 10 9 78 81 150 160 73 79 144 148 157 154 13 6 103 18 201 26 232 19 234 20 278 60 44 41 46 41 67 17 23 -25 21 -45 -4 -68 -34 -31 -38 -54 -43 -264 -6 -227 -9 -237 -93 -325 -26 -27 -89 -94 -140 -148 l-91 -99 81 -74 c45 -41 84 -74 87 -73 3 0 136 138 295 306 160 167 483 505 718 751 l428 447 -68 65 c-129 123 -792 740 -796 740 -2 0 -17 -15 -32 -32z m57 -38 c14 -10 29 -16 32 -12 4 4 7 3 6 -3 -5 -22 0 -40 8 -29 5 7 14 5 27 -9 11 -11 13 -16 5 -12 -8 5 -1 -5 17 -23 17 -18 37 -32 43 -32 6 0 8 -4 5 -10 -3 -5 -1 -10 5 -10 7 0 36 -24 65 -52 83 -83 145 -139 145 -130 1 4 7 -5 15 -20 8 -15 24 -30 35 -33 11 -4 18 -11 15 -16 -4 -5 -1 -9 6 -9 6 0 32 -21 58 -47 25 -26 48 -47 51 -48 3 0 4 -3 3 -7 -2 -4 3 -5 11 -2 8 3 17 0 22 -7 5 -8 3 -10 -7 -4 -12 8 -12 6 0 -8 7 -9 18 -14 24 -10 5 3 7 1 4 -4 -7 -12 66 -83 85 -83 6 0 8 -3 5 -7 -4 -3 5 -15 20 -25 16 -10 24 -18 18 -18 -5 0 -4 -4 3 -9 7 -4 25 -18 41 -31 l27 -24 -45 -49 c-25 -28 -75 -80 -111 -117 -36 -37 -71 -77 -79 -88 -8 -12 -18 -19 -23 -16 -4 3 -8 1 -8 -5 0 -5 -13 -18 -30 -27 -23 -14 -27 -21 -18 -31 8 -10 8 -13 1 -11 -6 2 -43 -30 -82 -69 -39 -40 -76 -73 -81 -73 -6 0 -10 -5 -10 -12 0 -7 -12 -24 -26 -38 -14 -14 -69 -70 -122 -125 -52 -55 -99 -99 -104 -97 -5 1 -7 -2 -3 -8 6 -10 -62 -80 -79 -80 -4 0 -6 -9 -3 -20 3 -11 1 -17 -4 -14 -12 7 -40 -21 -31 -31 4 -5 3 -6 -3 -3 -5 3 -35 -21 -65 -54 -87 -94 -241 -254 -351 -365 -68 -68 -98 -106 -93 -115 4 -7 4 -10 -1 -6 -4 4 -17 3 -28 -3 -12 -7 -17 -7 -13 -1 6 11 -21 25 -34 17 -4 -3 -7 3 -6 12 0 9 -12 26 -29 38 -16 11 -31 26 -32 32 -1 5 40 54 91 107 51 53 90 96 87 96 -3 1 4 6 16 13 12 7 21 15 20 19 -1 3 10 17 24 30 34 30 62 85 56 109 -3 11 -2 17 3 14 4 -3 9 82 10 188 2 105 3 199 3 208 1 9 8 16 17 15 8 -1 14 6 14 16 -1 10 3 16 9 15 16 -3 28 53 14 70 -38 47 -47 52 -78 48 -28 -3 -67 -25 -45 -25 4 0 1 -6 -6 -13 -22 -22 -67 -32 -188 -40 -222 -16 -259 -20 -253 -30 3 -6 1 -7 -6 -3 -6 4 -24 0 -39 -10 -30 -19 -95 -82 -72 -69 8 5 -7 -14 -35 -41 -27 -27 -84 -85 -125 -128 l-74 -78 -43 47 c-24 25 -47 43 -52 40 -6 -3 -13 0 -17 6 -5 8 -3 9 6 4 8 -5 11 -3 8 6 -2 7 7 25 21 40 14 15 46 49 71 75 25 26 44 52 42 57 -1 5 1 6 6 3 5 -3 16 4 25 15 9 10 15 19 13 19 -3 0 18 23 44 51 27 29 47 57 43 63 -3 6 -3 8 2 4 10 -10 97 81 89 93 -3 5 0 9 6 9 12 0 57 45 125 125 22 25 70 78 106 116 36 38 63 69 60 69 -3 0 9 10 27 23 25 19 29 26 19 36 -8 8 -8 11 -1 9 14 -4 127 103 149 141 6 10 4 12 -6 6 -8 -4 2 6 21 23 19 17 39 31 43 32 4 0 7 8 5 18 -2 9 2 16 8 15 11 -2 77 63 72 70 -6 6 57 65 65 60 4 -2 6 -1 5 4 -4 14 70 85 82 78 6 -4 10 -3 9 2 -4 22 5 36 46 78 25 25 43 45 39 45 -4 0 4 9 18 19 13 11 37 38 52 60 16 23 32 41 36 41 4 0 19 -9 32 -20z m329 -1243 c-10 -9 -11 -8 -5 6 3 10 9 15 12 12 3 -3 0 -11 -7 -18z"/>
    <path d="M2595 3624 c-82 -19 -202 -45 -265 -58 -432 -93 -545 -118 -560 -126 -17 -9 -362 -374 -368 -389 -2 -6 214 -214 227 -218 3 -1 33 30 66 67 33 38 62 69 65 69 3 1 49 -39 102 -89 53 -49 99 -90 101 -90 3 0 95 96 203 213 109 116 230 246 269 287 38 41 108 115 155 165 46 49 109 116 139 148 66 68 71 67 -134 21z m79 -26 c-13 -22 -170 -191 -262 -284 -24 -24 -42 -44 -39 -44 3 0 -32 -37 -76 -82 -45 -46 -85 -82 -90 -80 -5 1 -6 -1 -3 -6 6 -9 -72 -97 -86 -97 -4 0 -7 -3 -5 -6 3 -9 -106 -124 -115 -121 -4 1 -4 -6 -1 -15 4 -10 2 -14 -4 -10 -6 4 -13 1 -15 -5 -3 -9 -18 -4 -46 16 -23 16 -42 33 -42 37 0 5 -7 9 -16 9 -8 0 -13 4 -10 8 3 4 -17 23 -45 40 -27 18 -49 37 -49 42 0 6 -4 10 -10 10 -5 0 -10 -6 -10 -14 0 -8 -5 -18 -12 -22 -7 -5 -8 -3 -3 7 12 21 -40 -33 -74 -75 l-29 -36 -58 55 c-33 31 -58 60 -57 65 2 6 -3 9 -10 7 -6 -1 -11 4 -9 11 1 8 -2 11 -7 8 -5 -4 -12 -2 -16 4 -4 6 -12 7 -18 4 -7 -4 -9 -4 -5 1 4 4 4 13 -2 20 -6 7 8 29 45 68 30 31 59 57 65 57 5 0 10 6 10 14 0 8 11 23 25 34 13 11 21 23 17 27 -4 5 -2 5 4 2 6 -4 19 2 29 13 10 11 14 20 10 20 -5 0 6 11 25 25 19 14 30 25 24 25 -5 0 -1 7 10 15 10 8 15 19 10 26 -5 8 -3 10 6 4 9 -5 20 1 34 18 17 21 33 27 81 33 33 3 72 12 88 20 15 8 37 12 47 9 11 -4 20 -2 20 4 0 6 6 8 13 5 7 -2 40 3 73 12 32 9 66 16 74 16 8 0 33 6 55 13 22 8 58 16 80 19 49 6 108 21 125 31 9 6 11 4 5 -4 -6 -10 -3 -11 13 -2 11 6 36 11 54 11 25 0 29 3 18 10 -11 7 -5 8 19 3 20 -3 32 -2 29 3 -3 5 17 10 45 12 28 1 56 7 61 12 14 14 19 13 10 -2z"/>
    <path d="M4380 3501 c0 -6 4 -13 10 -16 6 -3 7 1 4 9 -7 18 -14 21 -14 7z"/>
    <path d="M1360 3106 c0 -2 8 -10 18 -17 15 -13 16 -12 3 4 -13 16 -21 21 -21 13z"/>
    <path d="M1288 2933 c-78 -82 -139 -171 -183 -267 -30 -63 -75 -189 -75 -206 0 -3 20 12 44 34 95 88 282 176 375 176 28 0 45 -8 67 -30 l31 -29 55 57 56 57 -148 138 c-81 75 -150 137 -152 137 -3 0 -34 -30 -70 -67z m120 -22 c19 -20 31 -29 27 -21 -7 12 -6 13 6 2 8 -7 14 -18 14 -25 0 -6 18 -23 40 -39 22 -15 39 -33 37 -40 -2 -7 0 -10 4 -6 9 9 36 -11 29 -22 -3 -4 2 -13 10 -20 13 -11 14 -10 9 6 -6 18 -6 18 9 -1 10 -13 12 -25 6 -36 -4 -9 -5 -20 -1 -24 4 -5 1 -5 -6 -1 -8 5 -19 1 -28 -10 -9 -11 -12 -12 -8 -4 7 13 5 13 -9 1 -12 -9 -17 -10 -17 -2 0 7 -6 11 -12 10 -25 -3 -38 1 -38 12 0 8 4 8 14 0 10 -8 16 -9 21 -1 4 6 3 10 -2 9 -4 -1 -10 -1 -13 1 -24 9 -50 8 -44 -1 5 -8 1 -8 -14 0 -24 13 -43 15 -24 2 10 -6 9 -10 -7 -14 -12 -3 -19 -1 -15 4 7 12 -10 11 -40 -2 -14 -7 -23 -15 -21 -19 2 -4 -6 -5 -19 -3 -13 3 -39 -3 -57 -13 -19 -10 -37 -17 -41 -16 -5 1 -8 -3 -8 -9 0 -5 -4 -8 -9 -4 -6 3 -14 -2 -19 -11 -5 -9 -20 -17 -35 -17 -18 -2 -23 -5 -15 -14 6 -8 3 -15 -11 -22 -18 -10 -19 -8 -15 16 7 36 13 45 27 37 9 -5 9 -4 1 5 -8 9 -4 26 14 64 14 29 30 55 36 59 6 5 7 8 1 8 -6 0 -6 3 1 8 5 4 20 24 33 45 12 20 25 37 27 37 3 0 2 -5 -2 -12 -4 -7 -3 -8 4 -4 6 4 9 12 6 19 -2 7 18 34 45 61 28 27 47 54 44 60 -11 18 30 -15 65 -53z"/>
    <path d="M1319 2914 c-19 -19 -26 -32 -16 -29 9 4 17 11 17 16 0 5 5 8 12 7 7 -2 12 2 13 7 0 6 4 16 8 23 14 21 2 13 -34 -24z"/>
    <path d="M2740 2894 c-69 -7 -135 -16 -147 -19 -19 -4 -306 -295 -309 -313 -1 -4 34 -40 76 -80 l77 -73 228 245 c125 135 233 247 239 250 18 7 -31 4 -164 -10z m76 -36 c4 -7 4 -10 0 -6 -5 4 -25 -12 -45 -35 -57 -66 -103 -107 -113 -101 -4 3 -8 2 -7 -3 3 -17 -2 -30 -18 -49 -72 -81 -103 -113 -103 -107 0 4 -6 -2 -14 -12 -8 -11 -12 -23 -10 -27 3 -5 -2 -8 -11 -8 -8 0 -24 -15 -35 -32 -11 -18 -20 -27 -20 -20 0 7 -4 11 -8 8 -11 -6 -43 30 -34 39 4 3 -2 3 -12 -1 -14 -5 -17 -4 -12 4 4 8 1 12 -10 12 -10 0 -15 3 -11 6 3 4 -3 14 -14 23 -20 16 -20 17 -3 31 16 13 17 13 9 0 -7 -12 -6 -13 6 -2 8 7 14 16 14 21 0 7 50 62 161 177 56 57 65 63 115 69 72 9 164 22 166 24 1 0 5 -5 9 -11z"/>
    <path d="M2797 2666 c-92 -100 -196 -211 -232 -248 l-64 -66 83 -76 82 -75 100 106 c54 59 120 130 145 158 l46 53 7 162 c4 89 5 164 4 165 -2 1 -78 -79 -171 -179z m128 -20 c0 -58 4 -102 9 -99 5 3 -2 -8 -15 -26 -12 -17 -26 -31 -30 -31 -4 0 -11 -9 -14 -21 -5 -16 -9 -18 -21 -8 -8 6 -17 9 -21 5 -3 -3 -2 -6 3 -6 5 0 10 -9 10 -19 0 -13 -6 -18 -18 -16 -10 2 -17 1 -16 -3 5 -17 -24 -53 -38 -48 -8 3 -13 2 -10 -3 3 -5 -7 -23 -23 -40 -16 -17 -27 -31 -24 -31 3 0 -6 -11 -21 -25 -32 -29 -33 -30 -53 -10 -8 8 -18 13 -23 10 -4 -3 -7 2 -6 11 0 9 -8 21 -19 28 -53 31 -52 33 29 119 31 33 53 63 50 68 -3 5 -2 8 3 7 4 -2 56 45 115 105 59 59 104 107 100 107 -3 0 3 7 14 15 10 8 19 15 19 15 0 0 0 -47 0 -104z"/>
    <path d="M2449 2813 c-13 -16 -12 -17 4 -4 9 7 17 15 17 17 0 8 -8 3 -21 -13z"/>
    <path d="M3482 2512 c-132 -143 -246 -265 -254 -273 -46 -51 -174 -187 -242 -257 -72 -76 -79 -85 -63 -97 9 -6 55 -49 102 -94 l86 -82 -64 -71 -64 -71 76 -72 c42 -40 94 -88 115 -108 l40 -35 70 76 c39 42 122 131 184 197 76 82 115 131 122 155 7 27 75 503 136 948 4 23 4 42 1 42 -2 0 -113 -116 -245 -258z m190 60 c-5 -45 -5 -78 2 -89 8 -15 7 -16 -5 -6 -11 9 -14 6 -15 -15 -1 -28 -12 -127 -14 -127 -1 0 -3 -12 -5 -26 -2 -15 -6 -44 -10 -65 -3 -22 -8 -57 -11 -79 -4 -41 -5 -50 -29 -200 -7 -49 -14 -99 -14 -110 l0 -20 9 20 c7 16 9 17 9 3 1 -9 -4 -20 -9 -23 -6 -4 -8 -16 -5 -28 2 -12 2 -16 -1 -9 -4 8 -13 -1 -25 -25 -10 -21 -59 -80 -109 -132 -49 -52 -90 -97 -90 -100 0 -2 -17 -20 -37 -39 -21 -20 -31 -32 -23 -27 8 4 -3 -8 -25 -28 -22 -20 -47 -36 -57 -37 -9 0 -34 19 -55 42 -67 72 -109 108 -118 100 -4 -4 -5 0 -3 8 2 8 13 25 26 38 13 12 21 22 18 22 -3 0 8 15 25 32 45 50 39 68 -53 160 -46 45 -82 88 -80 95 4 18 82 99 93 96 5 -2 6 3 3 11 -7 19 14 30 30 17 10 -8 12 -6 11 10 -1 13 15 37 41 62 24 23 40 46 37 52 -4 5 -3 7 1 3 4 -3 21 8 38 25 17 18 34 31 39 29 5 -1 8 1 7 5 -1 5 3 18 10 29 6 12 8 24 4 28 -3 4 1 4 10 1 11 -4 18 0 23 14 3 12 12 21 19 21 11 0 31 21 72 75 9 11 12 14 8 6 -5 -9 -3 -12 4 -7 7 4 12 13 12 21 0 7 7 16 16 19 8 3 13 10 9 15 -3 5 0 13 6 17 8 5 9 3 4 -7 -8 -12 -6 -12 8 0 9 7 17 20 17 27 0 7 18 24 40 36 22 13 40 29 40 36 0 17 104 120 108 106 1 -6 -1 -42 -6 -82z m-112 -26 c0 -3 -4 -8 -10 -11 -5 -3 -10 -1 -10 4 0 6 5 11 10 11 6 0 10 -2 10 -4z"/>
    <path d="M2978 1893 c7 -3 16 -2 19 1 4 3 -2 6 -13 5 -11 0 -14 -3 -6 -6z"/>
    <path d="M2776 2713 c-6 -14 -5 -15 5 -6 7 7 10 15 7 18 -3 3 -9 -2 -12 -12z"/>
    <path d="M2080 2676 c0 -2 8 -10 18 -17 15 -13 16 -12 3 4 -13 16 -21 21 -21 13z"/>
    <path d="M2077 2545 l-57 -64 52 -48 c29 -26 96 -89 148 -138 52 -50 161 -152 241 -228 l146 -136 58 65 58 66 -24 23 c-13 12 -125 116 -249 230 -124 114 -245 227 -270 251 l-45 43 -58 -64z m88 -5 c-5 -8 41 -50 56 -50 5 0 8 -4 4 -9 -3 -5 3 -12 14 -16 11 -3 26 -17 35 -30 9 -14 24 -25 33 -25 9 0 14 -3 10 -6 -6 -7 17 -34 28 -34 12 0 55 -44 55 -56 0 -6 10 -19 22 -30 16 -13 19 -14 10 -2 -10 12 -10 18 -1 24 7 4 9 3 6 -3 -7 -12 82 -113 99 -113 11 0 59 -47 59 -58 0 -4 4 -6 9 -4 5 2 6 -4 3 -12 -4 -10 -1 -13 8 -9 8 3 12 10 8 17 -3 6 -2 7 3 3 5 -5 10 -13 10 -18 1 -5 2 -14 3 -20 0 -5 6 -7 13 -3 7 4 8 3 4 -5 -4 -6 -3 -18 3 -25 8 -9 2 -20 -24 -43 l-34 -30 -22 23 c-12 13 -26 21 -30 18 -5 -3 -9 -1 -9 3 0 17 -87 99 -100 95 -7 -3 -10 0 -7 5 4 6 -11 26 -33 46 -22 19 -40 34 -40 32 0 -3 -10 6 -23 18 -13 12 -22 25 -20 30 2 4 -3 7 -11 7 -9 0 -16 5 -16 11 0 5 5 7 12 3 7 -4 8 -3 4 5 -4 6 -12 9 -17 6 -11 -7 -64 40 -64 58 0 6 -6 13 -12 13 -7 1 -16 3 -20 4 -5 1 -12 1 -18 0 -5 -1 -7 1 -3 5 8 8 -93 115 -103 110 -3 -2 -6 2 -6 10 0 8 3 12 6 10 4 -2 20 11 36 29 19 21 36 31 47 28 10 -2 16 -8 13 -12z"/>
    <path d="M1843 2385 c0 -8 4 -12 9 -9 5 3 6 10 3 15 -9 13 -12 11 -12 -6z"/>
    <path d="M1919 2351 l-96 -37 316 -295 316 -295 23 75 c42 140 42 140 -20 197 -30 27 -138 127 -241 222 -103 94 -190 172 -194 171 -5 0 -51 -17 -104 -38z m105 -13 c-3 -4 1 -8 9 -8 7 0 24 -10 37 -22 14 -13 28 -22 33 -20 5 1 6 -2 3 -7 -3 -5 19 -28 49 -51 51 -39 72 -61 43 -44 -8 4 -10 3 -5 -2 5 -5 12 -9 17 -9 12 0 59 -53 52 -58 -4 -2 -2 -3 5 -1 6 1 31 -16 55 -39 23 -23 37 -37 29 -33 -10 6 -12 5 -7 -3 4 -6 11 -9 15 -6 9 5 114 -94 116 -110 1 -5 -4 -26 -11 -46 -9 -28 -10 -40 -1 -49 9 -9 9 -11 -3 -8 -8 2 -14 -3 -15 -11 0 -8 -8 -15 -18 -17 -11 -1 -16 0 -14 3 6 6 -57 69 -173 173 -46 41 -98 89 -114 105 -17 17 -70 66 -118 109 -48 43 -90 88 -94 98 -4 13 -11 17 -22 13 -11 -4 -14 -3 -7 4 10 10 111 46 132 47 7 0 10 -3 7 -8z"/>
    <path d="M1803 2141 c-87 -41 -166 -104 -234 -185 -62 -74 -136 -210 -146 -269 l-5 -36 48 18 c27 10 60 22 74 26 l25 7 -22 -23 c-29 -33 -113 -170 -155 -254 -41 -81 -84 -210 -94 -277 l-6 -46 148 60 c205 82 256 111 342 195 42 40 77 72 78 70 2 -2 -6 -34 -17 -71 -11 -37 -19 -70 -16 -72 9 -9 117 38 177 77 158 102 269 252 304 412 6 25 -1 20 -54 -37 -65 -68 -162 -138 -243 -174 -27 -12 -46 -26 -42 -32 3 -6 0 -7 -10 -4 -9 4 -14 9 -13 13 2 3 22 43 46 88 23 46 42 84 42 87 0 2 -63 -22 -140 -54 -77 -32 -140 -56 -140 -53 0 8 80 265 86 274 9 14 1 11 -82 -36 -77 -44 -94 -51 -94 -39 0 23 114 217 166 284 35 44 58 80 52 80 -7 0 -41 -13 -75 -29z m-42 -85 c-6 -7 -7 -17 -3 -21 4 -5 2 -5 -5 -1 -7 4 -18 -9 -29 -34 -10 -22 -22 -40 -27 -40 -4 0 -6 -4 -2 -9 3 -5 -1 -16 -9 -24 -8 -8 -16 -22 -18 -33 -2 -10 -11 -26 -21 -36 -10 -10 -15 -23 -12 -28 3 -4 -1 -11 -7 -13 -7 -3 -4 -6 7 -6 14 -1 16 -4 7 -10 -10 -6 -10 -11 3 -21 18 -15 67 -21 59 -8 -6 10 65 42 74 34 2 -3 -3 -9 -12 -12 -14 -5 -15 -9 -4 -15 10 -7 11 -9 0 -9 -7 0 -10 -4 -7 -10 3 -5 2 -18 -4 -27 -5 -10 -11 -31 -14 -48 -3 -16 -9 -39 -13 -49 -6 -15 -4 -17 6 -11 10 6 12 4 7 -9 -4 -10 -1 -24 8 -32 12 -13 19 -13 50 0 20 9 34 20 31 25 -4 6 5 8 20 5 14 -3 32 0 40 7 8 6 21 9 29 5 9 -3 14 -2 11 3 -3 5 1 12 10 15 8 3 12 2 9 -4 -3 -6 0 -10 7 -10 10 0 10 -2 -1 -9 -8 -5 -11 -16 -8 -26 4 -9 3 -14 -3 -10 -6 3 -10 1 -11 -4 -4 -42 -1 -55 16 -67 17 -11 26 -10 58 5 20 9 34 21 30 25 -4 4 0 4 10 0 10 -3 17 -1 17 6 0 6 5 8 10 5 6 -3 10 -1 10 4 0 6 5 11 11 11 10 0 59 37 102 77 11 11 17 12 17 4 0 -7 5 -9 11 -5 7 4 7 -1 -1 -16 -7 -13 -17 -19 -26 -16 -11 4 -12 2 -4 -13 7 -15 6 -18 -8 -17 -11 1 -16 -5 -14 -16 4 -23 -120 -144 -181 -177 -15 -8 -36 -22 -46 -33 -11 -10 -29 -18 -41 -18 -11 0 -20 -5 -20 -11 0 -5 -5 -7 -10 -4 -6 4 -7 13 -1 24 11 19 9 70 -2 89 -12 18 -41 15 -57 -7 -7 -11 -16 -18 -20 -16 -3 2 -15 -10 -25 -26 -11 -16 -23 -29 -27 -29 -14 0 -57 -47 -50 -55 4 -5 2 -5 -4 -2 -13 7 -86 -27 -79 -37 3 -3 2 -4 -1 -1 -4 2 -23 -4 -43 -14 -30 -16 -55 -27 -81 -36 -3 -1 -18 -7 -33 -13 -15 -7 -39 -15 -52 -18 -14 -3 -25 -10 -25 -14 0 -4 -11 -7 -24 -6 -21 1 -23 3 -13 21 7 11 12 25 12 30 1 22 28 106 36 111 5 3 9 14 9 25 0 10 5 19 11 19 5 0 8 4 4 9 -3 5 11 36 30 68 19 32 35 62 35 67 0 6 19 33 42 60 23 28 34 44 23 36 -20 -14 -20 -14 0 10 11 14 24 28 28 31 13 9 15 69 4 76 -6 4 -7 1 -2 -7 5 -8 3 -11 -6 -8 -8 3 -13 11 -12 17 2 6 -2 11 -7 11 -5 0 -10 -5 -10 -12 0 -6 -3 -8 -6 -5 -4 3 -15 2 -26 -4 -11 -6 -21 -9 -23 -7 -9 9 49 148 61 148 3 0 2 -6 -2 -12 -4 -8 -3 -10 2 -5 5 5 10 13 10 18 1 5 2 13 3 18 0 4 13 20 27 35 15 14 23 26 19 26 -5 0 8 15 27 34 20 19 33 38 30 41 -4 3 2 3 12 -1 13 -5 17 -4 12 4 -3 6 2 13 13 17 10 3 29 14 41 25 24 21 48 17 31 -4z m-81 -272 c0 -8 -19 -13 -24 -6 -3 5 1 9 9 9 8 0 15 -2 15 -3z"/>
    <path d="M2921 1987 c-8 -10 -7 -14 2 -14 8 0 14 6 14 14 0 7 -1 13 -2 13 -2 0 -8 -6 -14 -13z"/>
    <path d="M2706 1943 c-6 -14 -5 -15 5 -6 7 7 10 15 7 18 -3 3 -9 -2 -12 -12z"/>
    <path d="M3505 1621 c-3 -5 -2 -12 3 -15 5 -3 9 1 9 9 0 17 -3 19 -12 6z"/>
    <path d="M1366 1612 c-3 -5 1 -9 9 -9 8 0 12 4 9 9 -3 4 -7 8 -9 8 -2 0 -6 -4 -9 -8z"/>
    <path d="M2813 1530 c-57 -62 -61 -70 -39 -70 8 0 24 -12 36 -27 20 -25 22 -36 17 -103 -5 -65 -13 -90 -67 -198 -33 -69 -70 -138 -82 -155 l-21 -29 24 7 c140 42 390 216 470 327 l19 26 -67 64 c-37 34 -104 98 -149 141 -44 42 -82 77 -85 76 -2 0 -28 -26 -56 -59z m97 -21 c0 -6 5 -7 10 -4 6 4 9 3 8 -2 -4 -14 74 -93 85 -86 6 3 7 1 3 -5 -4 -7 -3 -12 1 -12 15 0 103 -91 103 -106 0 -8 -7 -17 -15 -20 -8 -4 -15 -12 -15 -20 0 -8 -4 -14 -8 -14 -5 0 -28 -19 -52 -42 -24 -24 -38 -34 -30 -23 8 11 -5 3 -30 -18 -60 -51 -99 -75 -180 -115 -19 -9 -39 -21 -43 -27 -18 -23 -1 32 19 60 40 57 87 178 88 227 1 27 4 48 9 48 4 0 7 9 7 21 0 11 -4 17 -10 14 -6 -3 -7 1 -4 10 4 9 -2 29 -15 45 -22 31 -28 60 -11 60 6 0 10 7 10 16 0 8 4 13 9 9 5 -3 12 -1 16 5 7 12 45 -5 45 -21z"/>
    <path d="M3096 1172 c-3 -5 1 -9 9 -9 8 0 12 4 9 9 -3 4 -7 8 -9 8 -2 0 -6 -4 -9 -8z"/>
  </g>
</svg>